<svg width="14" height="21" viewBox="0 0 14 21" fill="none" xmlns="http://www.w3.org/2000/svg">
<path d="M7 10.139C6.33696 10.139 5.70107 9.87545 5.23223 9.4064C4.76339 8.93736 4.5 8.30119 4.5 7.63786C4.5 6.97452 4.76339 6.33836 5.23223 5.86931C5.70107 5.40026 6.33696 5.13675 7 5.13675C7.66304 5.13675 8.29893 5.40026 8.76777 5.86931C9.23661 6.33836 9.5 6.97452 9.5 7.63786C9.5 7.96631 9.43534 8.29154 9.3097 8.59499C9.18406 8.89843 8.99991 9.17415 8.76777 9.4064C8.53562 9.63865 8.26002 9.82288 7.95671 9.94857C7.65339 10.0743 7.3283 10.139 7 10.139ZM7 0.634766C5.14348 0.634766 3.36301 1.37259 2.05025 2.68592C0.737498 3.99926 0 5.78052 0 7.63786C0 12.8902 7 20.6436 7 20.6436C7 20.6436 14 12.8902 14 7.63786C14 5.78052 13.2625 3.99926 11.9497 2.68592C10.637 1.37259 8.85652 0.634766 7 0.634766Z" fill="#266B50"/>
</svg>
